<?xml version="1.0" encoding="UTF-8" standalone="no"?>
<!DOCTYPE svg PUBLIC "-//W3C//DTD SVG 1.1//EN"
 "http://www.w3.org/Graphics/SVG/1.1/DTD/svg11.dtd">
<!-- Generated by graphviz version 2.43.0 (0)
 -->
<!-- Title: G Pages: 1 -->
<svg width="335pt" height="286pt"
 viewBox="0.00 0.00 334.51 285.71" xmlns="http://www.w3.org/2000/svg" xmlns:xlink="http://www.w3.org/1999/xlink">
<g id="graph0" class="graph" transform="scale(1 1) rotate(0) translate(4 281.71)">
<title>G</title><style>.edge>path:hover{stroke-width:8}</style>
<polygon fill="white" stroke="transparent" points="-4,4 -4,-281.71 330.51,-281.71 330.51,4 -4,4"/>
<!-- gtfs_pipeline_cli -->
<g id="node1" class="node">
<title>gtfs_pipeline_cli</title><style>.edge>path:hover{stroke-width:8}</style>
<ellipse fill="#9d4343" stroke="black" cx="180.82" cy="-21.21" rx="58.88" ry="21.43"/>
<text text-anchor="middle" x="180.82" y="-24.21" font-family="Helvetica,sans-Serif" font-size="10.00" fill="#ffffff">gtfs_pipeline.</text>
<text text-anchor="middle" x="180.82" y="-13.21" font-family="Helvetica,sans-Serif" font-size="10.00" fill="#ffffff">cli</text>
</g>
<!-- gtfs_pipeline_config -->
<g id="node2" class="node">
<title>gtfs_pipeline_config</title><style>.edge>path:hover{stroke-width:8}</style>
<ellipse fill="#db2f2f" stroke="black" cx="93.82" cy="-256.49" rx="58.88" ry="21.43"/>
<text text-anchor="middle" x="93.82" y="-259.49" font-family="Helvetica,sans-Serif" font-size="10.00" fill="#ffffff">gtfs_pipeline.</text>
<text text-anchor="middle" x="93.82" y="-248.49" font-family="Helvetica,sans-Serif" font-size="10.00" fill="#ffffff">config</text>
</g>
<!-- gtfs_pipeline_config&#45;&gt;gtfs_pipeline_cli -->
<g id="edge1" class="edge">
<title>gtfs_pipeline_config&#45;&gt;gtfs_pipeline_cli</title><style>.edge>path:hover{stroke-width:8}</style>
<path fill="none" stroke="black" d="M64.23,-237.9C50.47,-228.21 35.12,-214.96 25.82,-199.28 3.05,-160.88 -7.24,-143.01 6.82,-100.64"/>
<path fill="none" stroke="black" d="M6.82,-98.64C20.35,-54.76 70.59,-36.01 113.63,-28.02"/>
<polygon fill="#db2f2f" stroke="black" points="114.26,-31.47 123.53,-26.35 113.09,-24.56 114.26,-31.47"/>
</g>
<!-- gtfs_pipeline_database -->
<g id="node3" class="node">
<title>gtfs_pipeline_database</title><style>.edge>path:hover{stroke-width:8}</style>
<ellipse fill="#cc3333" stroke="black" cx="93.82" cy="-178.07" rx="58.88" ry="21.43"/>
<text text-anchor="middle" x="93.82" y="-181.07" font-family="Helvetica,sans-Serif" font-size="10.00" fill="#ffffff">gtfs_pipeline.</text>
<text text-anchor="middle" x="93.82" y="-170.07" font-family="Helvetica,sans-Serif" font-size="10.00" fill="#ffffff">database</text>
</g>
<!-- gtfs_pipeline_config&#45;&gt;gtfs_pipeline_database -->
<g id="edge2" class="edge">
<title>gtfs_pipeline_config&#45;&gt;gtfs_pipeline_database</title><style>.edge>path:hover{stroke-width:8}</style>
<path fill="none" stroke="black" d="M93.82,-235.01C93.82,-227.15 93.82,-218.01 93.82,-209.42"/>
<polygon fill="#db2f2f" stroke="black" points="97.32,-209.34 93.82,-199.34 90.32,-209.34 97.32,-209.34"/>
</g>
<!-- gtfs_pipeline_gtfs_ingest -->
<g id="node4" class="node">
<title>gtfs_pipeline_gtfs_ingest</title><style>.edge>path:hover{stroke-width:8}</style>
<ellipse fill="#b03a3a" stroke="black" cx="180.82" cy="-99.64" rx="58.88" ry="21.43"/>
<text text-anchor="middle" x="180.82" y="-102.64" font-family="Helvetica,sans-Serif" font-size="10.00" fill="#ffffff">gtfs_pipeline.</text>
<text text-anchor="middle" x="180.82" y="-91.64" font-family="Helvetica,sans-Serif" font-size="10.00" fill="#ffffff">gtfs_ingest</text>
</g>
<!-- gtfs_pipeline_config&#45;&gt;gtfs_pipeline_gtfs_ingest -->
<g id="edge3" class="edge">
<title>gtfs_pipeline_config&#45;&gt;gtfs_pipeline_gtfs_ingest</title><style>.edge>path:hover{stroke-width:8}</style>
<path fill="none" stroke="black" d="M123.42,-237.9C137.18,-228.21 152.53,-214.96 161.82,-199.28 174.09,-178.58 178.66,-151.55 180.26,-131.02"/>
<polygon fill="#db2f2f" stroke="black" points="183.75,-131.13 180.85,-120.94 176.77,-130.72 183.75,-131.13"/>
</g>
<!-- gtfs_pipeline_database&#45;&gt;gtfs_pipeline_cli -->
<g id="edge4" class="edge">
<title>gtfs_pipeline_database&#45;&gt;gtfs_pipeline_cli</title><style>.edge>path:hover{stroke-width:8}</style>
<path fill="none" stroke="black" d="M54.32,-162.29C27.17,-149.44 -2.42,-128.5 6.82,-100.64"/>
</g>
<!-- gtfs_pipeline_database&#45;&gt;gtfs_pipeline_gtfs_ingest -->
<g id="edge5" class="edge">
<title>gtfs_pipeline_database&#45;&gt;gtfs_pipeline_gtfs_ingest</title><style>.edge>path:hover{stroke-width:8}</style>
<path fill="none" stroke="black" d="M115.33,-158.17C126.31,-148.53 139.82,-136.65 151.72,-126.2"/>
<polygon fill="#cc3333" stroke="black" points="154.06,-128.81 159.26,-119.58 149.44,-123.55 154.06,-128.81"/>
</g>
<!-- gtfs_pipeline_gtfs_ingest&#45;&gt;gtfs_pipeline_cli -->
<g id="edge6" class="edge">
<title>gtfs_pipeline_gtfs_ingest&#45;&gt;gtfs_pipeline_cli</title><style>.edge>path:hover{stroke-width:8}</style>
<path fill="none" stroke="black" d="M180.82,-78.16C180.82,-70.3 180.82,-61.16 180.82,-52.57"/>
<polygon fill="#b03a3a" stroke="black" points="184.32,-52.49 180.82,-42.49 177.32,-52.49 184.32,-52.49"/>
</g>
<!-- gtfs_pipeline_utils -->
<g id="node5" class="node">
<title>gtfs_pipeline_utils</title><style>.edge>path:hover{stroke-width:8}</style>
<ellipse fill="#ce3b3b" stroke="black" cx="267.82" cy="-178.07" rx="58.88" ry="21.43"/>
<text text-anchor="middle" x="267.82" y="-181.07" font-family="Helvetica,sans-Serif" font-size="10.00" fill="#ffffff">gtfs_pipeline.</text>
<text text-anchor="middle" x="267.82" y="-170.07" font-family="Helvetica,sans-Serif" font-size="10.00" fill="#ffffff">utils</text>
</g>
<!-- gtfs_pipeline_utils&#45;&gt;gtfs_pipeline_cli -->
<g id="edge7" class="edge">
<title>gtfs_pipeline_utils&#45;&gt;gtfs_pipeline_cli</title><style>.edge>path:hover{stroke-width:8}</style>
<path fill="none" stroke="black" d="M267.85,-156.76C267.01,-135.77 263.23,-102.73 248.82,-78.43 241.34,-65.81 229.94,-54.77 218.61,-45.88"/>
<polygon fill="#ce3b3b" stroke="black" points="220.53,-42.96 210.42,-39.81 216.36,-48.58 220.53,-42.96"/>
</g>
<!-- gtfs_pipeline_utils&#45;&gt;gtfs_pipeline_gtfs_ingest -->
<g id="edge8" class="edge">
<title>gtfs_pipeline_utils&#45;&gt;gtfs_pipeline_gtfs_ingest</title><style>.edge>path:hover{stroke-width:8}</style>
<path fill="none" stroke="black" d="M246.32,-158.17C235.34,-148.53 221.82,-136.65 209.92,-126.2"/>
<polygon fill="#ce3b3b" stroke="black" points="212.21,-123.55 202.38,-119.58 207.59,-128.81 212.21,-123.55"/>
</g>
</g>
</svg>
